# xmcd
#
# Track frame offsets:
# 150
# 30180
# 63600
# 111980
# 144790
# 178272
# 204530
# 213880
# 223482
# 243617
# 252765
# 273902
# 290607
# 302090
# 314112
#
# Disc length: 4392 seconds
#
#
# Revision: 3
# Processed by: cddbd v1.5.1PL0 Copyright (c) Steve Scherf et al.
# Submitted via: FreeRIP 2.942 
#
DISCID=ef11260f
DTITLE=Bach, Blech and Blues - Triptychon
DYEAR=1999
DGENRE=Brass
TTITLE0=Till Weser - Danserye (Paraphase eines Themas von T. Susato)
TTITLE1=F. Reinshagen - Michs Delight
TTITLE2=Lutz Landwehr von Prangenau - Running Riot
TTITLE3=Adrian Mears - Intuition of sacred hearts
TTITLE4=Bach - Contrapunctus XIX
TTITLE5=W. Zimmerman, T. Weser - Die Menschen mit den Steinen wiederversöhnen
TTITLE6=Steffen Schorn - Bb-A-C-H feat. T. Brönner and A. Mears - Part 1
TTITLE7=Steffen Schorn - Bb-A-C-H feat. T. Brönner and A. Mears - Part 2
TTITLE8=Steffen Schorn - Bb-A-C-H feat. T. Brönner and A. Mears -
TTITLE9=Steffen Schorn - Bb-A-C-H feat. T. Brönner and A. Mears - Part 4
TTITLE10=Jörg-Achim Keller - C.T.D.
TTITLE11=D. Ellington - Mood indigo
TTITLE12=H. Mancini - Peter Gunn
TTITLE13=C. Calloway - Minnie the Moocher
TTITLE14=Blues Brothers - Everybody needs somebody
EXTD=Bach, Blech and Blues feat. Till Brönner and Adrian Mears
EXTT0=
EXTT1=
EXTT2=
EXTT3=
EXTT4=
EXTT5=
EXTT6=
EXTT7=
EXTT8=
EXTT9=
EXTT10=
EXTT11=
EXTT12=
EXTT13=
EXTT14=
PLAYORDER=
